<svg width="18" height="18" viewBox="0 0 18 18" fill="none" xmlns="http://www.w3.org/2000/svg">
<path d="M9.00003 4.58478C6.57775 4.58478 4.59399 6.56457 4.59399 8.982C4.59399 11.3994 6.57775 13.3792 9.00003 13.3792C11.4223 13.3792 13.3852 11.3994 13.3852 8.982C13.3852 6.56457 11.4014 4.58478 9.00003 4.58478ZM9.00003 12.3372C7.14156 12.3372 5.63808 10.8367 5.63808 8.982C5.63808 7.12725 7.14156 5.62677 9.00003 5.62677C10.8376 5.62677 12.3411 7.12725 12.3411 8.982C12.3411 10.8367 10.8376 12.3372 9.00003 12.3372Z" fill="black"/>
<path d="M13.9072 2.10483C13.4478 2.10483 13.0302 2.27155 12.717 2.58415C12.4037 2.89674 12.2367 3.31354 12.2367 3.77202C12.2367 4.2305 12.4037 4.6473 12.717 4.95989C13.0302 5.27249 13.4478 5.43921 13.9072 5.43921C14.3666 5.43921 14.7843 5.27249 15.0975 4.95989C15.3898 4.66814 15.5778 4.25134 15.5986 3.79286V3.77202C15.5986 3.33438 15.4107 2.91758 15.1184 2.62583C14.8051 2.29239 14.3666 2.10483 13.9072 2.10483ZM14.3457 4.20966C14.116 4.4389 13.6775 4.4389 13.4478 4.20966C13.3225 4.08462 13.2599 3.93874 13.2599 3.77202C13.2599 3.6053 13.3225 3.43858 13.4478 3.33438C13.5731 3.20934 13.7193 3.14682 13.8863 3.14682C14.0534 3.14682 14.2205 3.20934 14.3457 3.33438C14.4502 3.43858 14.5337 3.6053 14.5337 3.75118C14.5337 3.93874 14.471 4.10546 14.3457 4.20966Z" fill="black"/>
<path d="M12.6543 0H5.32483C2.38051 0 0 2.37575 0 5.31418V12.6498C0 15.5883 2.38051 17.964 5.32483 17.964H12.6752C15.6195 17.964 18 15.5883 18 12.6498V5.31418C17.9791 2.37575 15.5986 0 12.6543 0ZM16.935 12.6498C16.935 15.0047 15.0139 16.922 12.6543 16.922H5.32483C2.9652 16.922 1.04408 15.0047 1.04408 12.6498V5.31418C1.04408 2.95927 2.9652 1.042 5.32483 1.042H12.6752C15.0348 1.042 16.9559 2.95927 16.9559 5.31418V12.6498H16.935Z" fill="black"/>
</svg>
