<svg width="18" height="18" viewBox="0 0 18 18" fill="none" xmlns="http://www.w3.org/2000/svg">
<path d="M2.14286 0C0.964493 0 0 0.964493 0 2.14286V15.8571C0 17.0355 0.964493 18 2.14286 18H15.8571C17.0355 18 18 17.0355 18 15.8571V2.14286C18 0.964493 17.0355 0 15.8571 0H2.14286ZM2.14286 0.857143H15.8571C16.5722 0.857143 17.1429 1.42779 17.1429 2.14286V15.8571C17.1429 16.5722 16.5722 17.1429 15.8571 17.1429H2.14286C1.42779 17.1429 0.857143 16.5722 0.857143 15.8571V2.14286C0.857143 1.42779 1.42779 0.857143 2.14286 0.857143ZM8.31278 5.13951C7.85957 5.13847 7.45545 5.1638 7.09403 5.34124C7.09375 5.34152 7.09347 5.3418 7.09319 5.34208C6.91699 5.42889 6.7928 5.53915 6.69392 5.6702C6.64447 5.73572 6.59382 5.79454 6.56669 5.94392C6.55312 6.0186 6.5455 6.13964 6.6236 6.27037C6.70171 6.4011 6.85877 6.47544 6.95926 6.48884C7.02907 6.49813 7.18664 6.5652 7.20117 6.5851C7.20145 6.58566 7.20173 6.58622 7.20201 6.58677C7.20211 6.58692 7.26311 6.7462 7.28069 6.88811C7.29827 7.03002 7.29743 7.14509 7.29743 7.14509C7.29725 7.15654 7.29753 7.16798 7.29827 7.17941C7.29827 7.17941 7.3231 7.55122 7.30664 7.93527C7.30008 8.08833 7.28029 8.22451 7.25977 8.34626C7.10715 8.17776 6.88226 7.87263 6.55748 7.30999C6.19718 6.68548 5.91044 6.12556 5.91044 6.12556C5.89538 6.07678 5.84212 5.92501 5.63421 5.77232C5.40692 5.6048 5.18722 5.5798 5.18722 5.5798C5.15966 5.57427 5.13162 5.57147 5.10352 5.57143L3.41434 5.57227C3.41434 5.57227 3.31306 5.56641 3.19169 5.58315C3.07031 5.59989 2.88754 5.61351 2.71122 5.82254C2.71094 5.82282 2.71066 5.8231 2.71038 5.82338C2.5528 6.01167 2.56233 6.21978 2.58147 6.33733C2.60061 6.45489 2.64342 6.54408 2.64342 6.54408C2.64424 6.54576 2.64508 6.54744 2.64593 6.54911C2.64593 6.54911 4.02759 9.45407 5.58901 11.1646C6.72287 12.4066 7.88667 12.4277 8.84682 12.4277H9.56334C9.74626 12.4277 9.91173 12.4206 10.0949 12.3139C10.278 12.2072 10.4012 11.9475 10.4012 11.7673C10.4012 11.5785 10.4294 11.4301 10.464 11.3538C10.4883 11.3001 10.5076 11.2808 10.5377 11.2651C10.544 11.2691 10.5399 11.2668 10.5578 11.2793C10.6291 11.3295 10.7469 11.4438 10.875 11.5865C11.1312 11.8718 11.422 12.2632 11.8125 12.5315C12.0923 12.724 12.3566 12.8094 12.5575 12.8404C12.6834 12.8598 12.7811 12.8561 12.8504 12.8504L14.4509 12.8571C14.4604 12.8572 14.4699 12.8569 14.4794 12.8563C14.4794 12.8563 14.7551 12.8595 15.0419 12.6881C15.1852 12.6023 15.3543 12.4398 15.4093 12.2026C15.4643 11.9654 15.3952 11.7196 15.2603 11.4953C15.2603 11.495 15.2603 11.4947 15.2603 11.4944C15.2837 11.5332 15.2391 11.4535 15.1934 11.3789C15.1476 11.3044 15.0812 11.2039 14.9858 11.0792C14.795 10.83 14.4894 10.4811 13.9955 10.0212C13.9953 10.0212 13.995 10.0212 13.9947 10.0212C13.7438 9.78781 13.5745 9.62256 13.505 9.53069C13.4356 9.43882 13.4584 9.48708 13.4632 9.46373C13.4728 9.41702 13.7739 8.98271 14.3864 8.16462C14.7588 7.66667 15.0202 7.29282 15.1925 6.98186C15.3649 6.67091 15.4892 6.40161 15.4026 6.07199C15.4023 6.07143 15.4021 6.07087 15.4018 6.07031C15.3634 5.92562 15.2584 5.79225 15.1507 5.71959C15.0429 5.64693 14.9407 5.61851 14.8493 5.60073C14.6665 5.56516 14.507 5.57143 14.3588 5.57143C14.0482 5.57143 12.6701 5.58231 12.5566 5.58231C12.4226 5.58231 12.201 5.64327 12.103 5.70201C11.8565 5.85033 11.7857 6.0452 11.7857 6.0452C11.7813 6.05343 11.7771 6.06181 11.7732 6.07031C11.7732 6.07031 11.4889 6.70071 11.1228 7.32338C10.7519 7.95498 10.4779 8.25622 10.3125 8.39565C10.3079 8.37085 10.3087 8.39099 10.3058 8.35631C10.291 8.17993 10.3075 7.93621 10.3075 7.69838C10.3075 7.05788 10.3618 6.6096 10.3326 6.21345C10.318 6.01537 10.2813 5.81112 10.1509 5.62333C10.0206 5.43553 9.80367 5.31353 9.58929 5.26172C9.46065 5.23069 9.31402 5.14998 8.7832 5.14453C8.78292 5.14453 8.78265 5.14453 8.78237 5.14453C8.62004 5.14291 8.46385 5.13986 8.31278 5.13951ZM8.774 6.00167C9.2437 6.0065 9.12669 6.03236 9.38756 6.09542C9.46845 6.11497 9.44886 6.11486 9.44699 6.11217C9.4451 6.10947 9.46887 6.15366 9.47796 6.27706C9.49614 6.52388 9.45033 7.0146 9.45033 7.69838C9.45033 7.88484 9.42784 8.15092 9.45117 8.42829C9.47449 8.70567 9.54328 9.06163 9.87472 9.27623C10.0318 9.37807 10.2143 9.38449 10.3703 9.3457C10.5263 9.30692 10.6678 9.22614 10.8164 9.10714C11.1136 8.86915 11.4452 8.46748 11.8619 7.75781C12.2514 7.09537 12.5347 6.46456 12.5441 6.44364C12.5459 6.44216 12.5478 6.44115 12.5499 6.43945C12.5553 6.43951 12.5498 6.43945 12.5566 6.43945C12.7166 6.43945 14.0694 6.42857 14.3588 6.42857C14.4264 6.42857 14.451 6.43264 14.5045 6.43443C14.4899 6.48297 14.5061 6.45201 14.4425 6.56669C14.3092 6.8072 14.0635 7.16462 13.7001 7.65067C13.1028 8.4483 12.7326 8.76084 12.6236 9.29046C12.5691 9.55527 12.6712 9.84879 12.8211 10.0472C12.9711 10.2455 13.1603 10.4155 13.4113 10.649C13.8761 11.0818 14.1488 11.3963 14.3052 11.6007C14.3835 11.703 14.4328 11.7768 14.4634 11.8267C14.4941 11.8767 14.4865 11.8714 14.5262 11.9372C14.5524 11.981 14.5427 11.9543 14.5472 11.9674C14.4958 11.9818 14.4335 11.9993 14.43 12L12.8538 11.9933C12.8254 11.9933 12.7971 11.9961 12.7693 12.0017C12.7693 12.0017 12.7732 12.0063 12.6889 11.9933C12.6046 11.9803 12.4705 11.9438 12.298 11.8251C12.0898 11.682 11.7984 11.332 11.5128 11.014C11.3701 10.8549 11.2277 10.7023 11.0508 10.5778C10.8739 10.4534 10.6092 10.3365 10.3234 10.4263C10.0267 10.5195 9.79579 10.751 9.68304 10.9997C9.5991 11.1848 9.59231 11.3782 9.57924 11.5706C9.56502 11.5717 9.58138 11.5706 9.56334 11.5706H8.84682C7.87325 11.5706 7.18195 11.6379 6.22182 10.5862C4.93032 9.17136 3.74705 6.81729 3.55413 6.42941L5.04074 6.42857C5.06687 6.4386 5.12279 6.4596 5.12612 6.46205C5.12667 6.46261 5.12723 6.46317 5.12779 6.46373C5.07345 6.42401 5.1303 6.47963 5.1303 6.47963C5.13555 6.49246 5.14141 6.50504 5.14788 6.5173C5.14788 6.5173 5.44245 7.09279 5.81501 7.73856C6.18046 8.37164 6.44677 8.76712 6.70396 9.02846C6.83256 9.15913 6.96237 9.26393 7.13588 9.3231C7.30939 9.38228 7.53343 9.36057 7.68415 9.2779C7.99205 9.10936 8.03342 8.86076 8.08343 8.64342C8.13351 8.42577 8.15344 8.19391 8.16295 7.9721C8.18139 7.54155 8.1553 7.16894 8.15374 7.14593C8.15383 7.13786 8.15579 6.98247 8.13114 6.78348C8.1059 6.57972 8.07774 6.33058 7.89342 6.07952L7.89258 6.07868C7.89129 6.07693 7.88968 6.07705 7.88839 6.07533C8.13214 6.04038 8.34071 5.99734 8.774 6.00167ZM12.555 6.42188L12.5491 6.43527C12.5482 6.43579 12.5485 6.43465 12.5474 6.43527C12.5492 6.43181 12.555 6.42188 12.555 6.42188Z" fill="black"/>
</svg>
