<svg width="18" height="18" viewBox="0 0 18 18" fill="none" xmlns="http://www.w3.org/2000/svg">
<path d="M9.5625 0C4.89375 0 1.125 3.80625 1.125 8.49375C1.125 10.05 1.5375 11.55 2.325 12.8625L0 18L5.38125 15.9C6.65625 16.6313 8.08125 17.0062 9.5625 17.0062C14.2312 17.0062 18 13.2 18 8.5125C18 3.825 14.2125 0 9.5625 0ZM9.5625 16.2562C8.23125 16.2562 6.91875 15.9188 5.75625 15.2438L5.4375 15.0563L1.44375 16.6312L3.16875 12.825L2.9625 12.4875C2.25 11.2875 1.875 9.9 1.875 8.49375C1.85625 4.2375 5.2875 0.75 9.5625 0.75C13.8375 0.75 17.25 4.2375 17.25 8.49375C17.25 12.75 13.8188 16.2562 9.5625 16.2562ZM12.5062 9.7125C11.9625 9.45 11.175 8.94375 10.575 9.16875C10.2 9.31875 10.0125 9.65625 9.76875 9.95625C9.31875 9.73125 8.775 9.39375 8.49375 9.05625C8.4 8.94375 8.15625 8.6625 8.00625 8.45625C8.08125 8.38125 8.15625 8.30625 8.23125 8.175C8.5875 7.63125 8.5875 7.35 8.34375 6.76875C8.25 6.54375 8.15625 6.3 8.0625 6.075C7.78125 5.41875 7.6125 4.78125 6.73125 4.7625C6.46875 4.7625 6.225 4.74375 5.98125 4.8375C5.325 5.0625 4.8 5.8125 4.6125 6.46875C4.40625 7.2375 4.5 7.95 4.81875 8.6625C5.15625 9.43125 6.075 10.6312 6.675 11.2125C6.8625 11.3812 7.05 11.5313 7.2375 11.7C7.44375 11.8875 7.66875 12.0188 7.89375 12.1688C8.775 12.75 10.4625 13.3875 11.4937 13.1813C12.15 13.05 12.9187 12.5813 13.2375 11.9813C13.4062 11.6625 13.5188 11.1 13.4813 10.725C13.425 10.1063 12.975 9.95625 12.5062 9.7125ZM12.5812 11.6437C12.4125 11.9812 11.8687 12.3563 11.3625 12.45C10.5187 12.6188 8.98125 12 8.30625 11.55C8.1 11.4 7.93125 11.3063 7.725 11.1375C7.51875 10.9688 7.36875 10.8375 7.2 10.6688C6.675 10.1625 5.79375 9 5.5125 8.3625C5.2875 7.8375 5.15625 7.29375 5.34375 6.675C5.475 6.225 5.85 5.68125 6.225 5.56875C6.35625 5.5125 6.5625 5.53125 6.73125 5.53125C7.14375 5.53125 7.1625 5.86875 7.3875 6.375C7.48125 6.61875 7.575 6.84375 7.66875 7.0875C7.81875 7.425 7.8375 7.4625 7.6125 7.78125C7.2 8.4 6.73125 8.11875 7.93125 9.54375C8.325 10.0313 9.1125 10.5 9.73125 10.7625C10.0688 10.9125 10.1812 10.6688 10.3312 10.4813C10.9875 9.69375 10.6312 9.61875 12.1875 10.3875C12.525 10.5563 12.7312 10.5938 12.7687 10.8188C12.7687 11.0438 12.675 11.475 12.5812 11.6437Z" fill="black"/>
</svg>
